<svg version="1.2" xmlns="http://www.w3.org/2000/svg" viewBox="0 0 1525 343" width="1525" height="343">
	<title>ehealth-svg</title>
	<style>
		.s0 { fill: #8cc63e } 
	</style>
	<path id="Layer" fill-rule="evenodd" class="s0" d="m1277.2 9.9v118.5q3.7-5 8.1-9.6c5.4-5.6 11.4-10.7 17.8-15.3 6.7-4.7 14.4-8.2 23-10.5q12.8-3.5 28.5-3.5c7.3 0 14.2 0.6 20.8 1.8q9.9 1.7 18.5 5.3c5.6 2.3 11 5.1 16 8.6 4.9 3.3 9.4 7.2 13.4 11.6 4.1 4.3 7.7 9.1 10.7 14.3 3.1 5.3 5.7 10.9 7.8 16.7 2.1 6.1 3.7 12.4 4.7 18.8 1.1 6.6 1.7 13.4 1.7 20.6v149.6h-41.6v-141c0-10.6-1.4-20.1-4.1-28.4q-4-12.4-12-21.5c-5.2-5.9-11.8-10.6-19.3-13.5q-11.4-4.5-26.6-4.5-7.3 0-13.9 1.2-6.7 1.3-12.9 3.8-6.1 2.4-11.6 6-5.3 3.7-9.9 8.3c-3.1 3.1-5.8 6.6-8.1 10.3-2.4 3.8-4.4 7.9-6 12.1-1.7 4.5-3 9.1-3.8 13.8q-1.3 7.5-1.2 15.1v138.3h-41.6v-326.9zm-250.3 0h41.5v326.9h-41.5zm-150.9 332q-8.4 0-16.8-1.2-8.4-1.1-16.5-3.5c-5.4-1.5-10.6-3.5-15.6-5.9-4.8-2.4-9.4-5.3-13.7-8.5-4.3-3.3-8.2-6.9-11.6-10.9-3.5-4.1-6.6-8.5-9.1-13.2-2.7-4.8-4.7-10-6-15.7q-2-8.3-2-17.8v-0.9q0-9.9 1.9-18.6c1.3-5.7 3.2-11.2 5.8-16.4 2.5-4.9 5.6-9.6 9.3-13.8 3.7-4.2 7.8-8 12.4-11.3 4.8-3.4 9.9-6.3 15.3-8.7q8.6-3.9 17.7-6.4c6.2-1.7 12.9-3 19.9-3.9q10.8-1.3 21.7-1.2 11.5 0 21.4 0.7 10.1 0.7 18.6 2.1 8.4 1.3 16.6 3.2 6.2 1.4 12.3 3v-3q0-15.2-4.4-26.6c-2.9-7.4-7.1-13.7-12.8-18.7-5.7-5.1-12.7-8.9-20.8-11.5q-12.4-3.9-28.6-3.9-10.3 0-19.6 1.1-8.9 1.1-17.6 3.3-8.5 2.3-16.7 5.3-8.3 3.1-16.3 6.9l-3.2 1.5-1.2-3.3-10.5-28.8-1-2.8 2.7-1.2q9.8-4.5 20-8.3 9.9-3.7 20.2-6.5 10.2-2.8 22-4.2 12.4-1.4 24.9-1.4 25.5 0 45.1 6.7c13.2 4.5 24.3 11.3 33.3 20.3q12.8 12.8 19.2 30.8 6.4 17.9 6.4 40.8v147.4h-41.1v-29.6q-4.4 4.6-9.2 8.7-8.4 7.2-19.1 13.4c-7.2 4.2-15.2 7.3-24.2 9.4q-13.3 3.1-29.1 3.1zm6.8-34.7q8 0 15.4-1.1 7.2-1.1 14.2-3.3 6.6-2.1 12.7-5.3 5.9-3.1 11.1-7.2c3.4-2.6 6.4-5.6 9.1-8.8 2.7-3.2 5-6.6 6.9-10.2 2-3.7 3.4-7.5 4.4-11.6q1.4-6 1.4-12.7v-19.5q-5.8-1.5-11.7-2.8c-5-1.1-10.2-2.2-15.8-3.3q-8.8-1.7-17.8-2.3-9.5-0.8-20.3-0.8c-10.7 0-20.2 1-28.3 3.1q-12.2 3.1-20.7 9.3c-5.6 4-9.8 8.7-12.5 14-2.8 5.2-4.2 11.1-4.2 17.8v0.9q0 5.2 1.2 9.7c0.7 3 1.8 5.9 3.2 8.6 1.5 2.7 3.3 5.3 5.3 7.6q3 3.4 6.8 6.2 4 2.8 8.4 4.9 4.5 2.2 9.6 3.7c3.3 1 6.9 1.8 10.5 2.3q5.5 0.8 11.1 0.8zm-302.1-73.9c0.6 4.8 1.4 9.3 2.6 13.6 1.4 5.2 3.4 10.3 5.8 15.1 2.3 4.7 5 9 7.9 12.9 3 3.9 6.3 7.5 10 10.7q5.4 4.8 11.6 8.5c4.1 2.5 8.4 4.5 12.9 6.2 4.5 1.7 9.2 2.9 13.9 3.8q7.1 1.2 14.6 1.2c8 0 15.4-0.7 22.2-2.1q10.1-2.3 18.5-6.6 17.1-8.9 31.3-23.6l2.2-2.2 24.2 21.7 2.4 2.1-2.2 2.4c-5.9 6.7-12.4 12.9-19.4 18.5-6.9 5.5-14.3 10.3-22 14.4-7.9 4.2-16.7 7.3-26.4 9.4q-14.5 3.1-31.7 3.1-24.8 0-46.8-9.2c-7.2-3-14.1-6.7-20.6-11-6.5-4.3-12.4-9.3-17.9-14.8-5.5-5.6-10.4-11.7-14.7-18.4-4.4-6.8-8.2-14.1-11.3-21.6-3.2-8-5.6-16.2-7.1-24.6q-2.5-12.9-2.5-26.8 0.1-26.1 8.7-49.3c2.8-7.5 6.2-14.7 10.3-21.6 4-6.7 8.6-12.9 13.8-18.7 5.1-5.6 10.8-10.8 17-15.3 6.2-4.6 12.8-8.5 19.8-11.7 7.2-3.3 14.7-5.7 22.4-7.4q11.7-2.5 24.4-2.4 26.7 0 47.8 10.1c6.9 3.3 13.5 7.3 19.5 11.9 6 4.6 11.4 9.8 16.3 15.6 4.9 5.9 9.2 12.2 12.8 18.9 3.7 7 6.8 14.3 9.2 21.9 2.5 7.9 4.4 15.9 5.6 24.1q1.9 12.5 1.9 25.7v5.2q-0.1 1.5-0.2 3.5-0.1 2-0.3 3.9l-0.3 2.9zm144.6-34.7q-0.6-5.9-1.9-11.7-1.7-7.3-4.3-14.3-2.6-6.7-6.2-13c-2.4-4-5.1-7.8-8.1-11.4-3-3.4-6.3-6.6-9.9-9.3-3.7-2.8-7.6-5.2-11.8-7.2-4.4-2-9-3.6-13.7-4.5-4.9-1-10.2-1.5-15.7-1.5-9.6 0-18.6 1.8-27 5.6-4.2 1.9-8.1 4.2-11.8 6.8-3.8 2.7-7.3 5.7-10.4 9.1q-4.9 5.3-8.8 11.3-4.1 6.3-7.3 13.2-3.2 7.1-5.2 14.6-1.6 6.1-2.5 12.3zm403.9-62.3h-45.8v-37.5h45.8v-58.2h41.6v58.2h48.9v37.5h-48.9v130.3q0 10.4 2.5 17.5c1.6 4.5 4 8.1 7.2 10.5q4.4 3.6 10.3 5.6c4 1.3 8.4 2.1 13.2 2.3l3.1 0.2v38.1l-3.1 0.1c-6.4 0.3-12.8 0-19.1-0.9q-6.8-0.9-13.3-2.8c-4.2-1.2-8.2-2.9-12.1-5-3.7-2-7.2-4.5-10.3-7.3-3.2-2.9-6.1-6.2-8.5-9.8-2.5-3.8-4.6-7.9-6.3-12.2-1.8-4.7-3.1-9.7-3.9-14.7q-1.3-7.9-1.3-17zm-834.9-126.4v143h177.8v-143h42.5v326.9h-42.5v-143.7h-177.8v143.7h-42.5v-326.9zm-66.7 182.1q1.9 12.5 1.9 25.7v5.3q0 1.5-0.1 3.4-0.1 1.9-0.4 4l-0.3 2.9h-186.2q0.9 6.9 2.7 13.6c1.4 5.2 3.3 10.2 5.7 15q3.5 7.1 8 13c2.9 3.8 6.3 7.4 9.9 10.7q5.4 4.7 11.6 8.5c4.1 2.4 8.5 4.5 13 6.1q6.7 2.6 13.9 3.8 7.1 1.3 14.6 1.3c7.9 0 15.3-0.8 22.1-2.2q10.2-2.2 18.6-6.6 17.1-8.9 31.3-23.6l2.1-2.2 2.4 2.1 21.8 19.6 2.4 2.2-2.1 2.4c-5.9 6.7-12.5 12.8-19.5 18.4-6.9 5.5-14.2 10.3-22 14.4-7.9 4.2-16.7 7.3-26.4 9.4q-14.5 3.1-31.6 3.1-24.8 0-46.9-9.2c-7.2-2.9-14.1-6.6-20.6-11-6.4-4.3-12.4-9.2-17.8-14.8-5.5-5.6-10.5-11.7-14.7-18.3-4.5-6.9-8.2-14.1-11.3-21.7-3.3-7.9-5.7-16.2-7.2-24.6q-2.4-12.9-2.4-26.8 0-26.1 8.6-49.3c2.8-7.5 6.3-14.7 10.4-21.6 4-6.6 8.6-12.9 13.7-18.6 5.1-5.7 10.8-10.8 17-15.4 6.2-4.5 12.9-8.4 19.9-11.6 7.2-3.3 14.7-5.8 22.4-7.4 7.8-1.7 15.9-2.5 24.3-2.5q26.7 0 47.9 10.1c6.9 3.3 13.4 7.3 19.5 11.9 5.9 4.6 11.4 9.9 16.2 15.6 4.9 5.9 9.2 12.2 12.8 18.9 3.8 7 6.8 14.4 9.3 21.9 2.5 7.9 4.3 16 5.5 24.1zm-40.4 6.5q-0.7-5.8-2-11.6-1.7-7.3-4.3-14.3-2.6-6.8-6.2-13.1-3.5-6-8.1-11.3c-2.9-3.5-6.3-6.6-9.9-9.4-3.7-2.8-7.6-5.2-11.8-7.1q-6.4-3.1-13.7-4.6-7.3-1.5-15.7-1.5-14.4 0-27 5.6c-4.2 1.9-8.1 4.2-11.8 6.9-3.8 2.6-7.2 5.7-10.4 9.1q-4.9 5.2-8.8 11.2-4.1 6.3-7.3 13.2-3.2 7.1-5.2 14.7c-1 3.9-1.9 8-2.5 12.2zm1301.9-126.5c-19.9 0-36-16.1-36-36 0-19.9 16.1-36 36-36 19.9 0 36 16.1 36 36 0 19.9-16.1 36-36 36zm30.2-36c0-16.7-13.5-30.2-30.2-30.2-16.7 0-30.2 13.5-30.2 30.2 0 16.7 13.5 30.2 30.2 30.2 16.7 0 30.2-13.5 30.2-30.2zm-43.7-20.2h13.9c4.8 0 14.1 0 14.1 10.7 0 7.4-4.7 9-7.6 9.9 5.5 0.4 5.9 4 6.7 9.2 0.3 3.2 0.9 8.7 2 10.6h-8.5c-0.2-1.9-1.6-12.2-1.6-12.7-0.5-2.3-1.3-3.5-4.1-3.5h-7.1v16.2h-7.8zm7.6 17.8h6.3c5.1 0 6.1-3.7 6.1-5.8 0-5.5-3.8-5.5-5.9-5.5h-6.5z"/>
</svg>